<svg width="233" height="206" viewBox="0 0 233 206" fill="none" xmlns="http://www.w3.org/2000/svg">
<g clip-path="url(#clip0_11_333)">
<path d="M83.5772 118.555C91.5622 99.868 106.794 85.5196 122.917 86.9018C111.024 104.108 104.089 126.356 103.339 149.711C103.074 158.719 103.484 168.774 98.9886 175.52C96.1912 179.717 91.9154 181.749 87.7113 182.176C83.5071 182.602 79.3038 181.591 75.1557 180.585L74.1494 180.996C73.7664 159.507 75.5922 137.242 83.5772 118.555Z" fill="#F0F0F0"/>
<path d="M122.941 87.3517C111.018 94.9879 100.851 107.741 94.6101 123.295C93.2608 126.657 92.112 130.225 91.6109 133.996C91.1095 137.77 91.4597 141.362 92.4285 144.946C93.3142 148.223 94.5054 151.438 94.777 154.944C95.0632 158.639 94.0412 162.094 92.2014 164.836C89.9505 168.192 86.9275 170.271 83.9182 172.167C80.577 174.273 77.0814 176.39 74.7148 180.32C74.4281 180.796 73.8895 180.177 74.1758 179.701C78.2932 172.863 85.3411 171.578 90.2285 166.07C92.509 163.5 94.2212 160 94.1131 155.898C94.0186 152.312 92.7924 148.995 91.8741 145.688C90.9098 142.215 90.429 138.724 90.7747 135.021C91.1285 131.234 92.1749 127.599 93.4536 124.206C96.3376 116.552 100.284 109.525 104.806 103.451C110.002 96.4688 116.058 90.7207 122.711 86.4553C123.123 86.1915 123.35 87.0897 122.941 87.3517Z" fill="white"/>
<path d="M96.4383 118.097C94.6104 116.319 93.3172 113.734 92.7895 110.804C92.2618 107.875 92.534 104.791 93.5576 102.104C93.7661 101.561 94.4098 101.967 94.2011 102.51C93.2445 105.01 92.9911 107.883 93.4867 110.609C93.9823 113.336 95.1941 115.737 96.9036 117.379C97.2748 117.737 96.8074 118.452 96.4383 118.097Z" fill="white"/>
<path d="M91.8149 143.363C96.3952 142.473 100.555 139.319 103.465 134.529C103.753 134.055 104.291 134.674 104.004 135.148C100.969 140.125 96.6349 143.396 91.8671 144.308C91.4126 144.395 91.3629 143.45 91.8149 143.363V143.363Z" fill="white"/>
<path d="M110.354 97.6345C110.953 98.5186 111.708 99.1907 112.551 99.5905C113.394 99.9904 114.299 100.105 115.183 99.9253C115.637 99.8311 115.686 100.777 115.235 100.87C114.257 101.063 113.259 100.934 112.327 100.495C111.394 100.056 110.557 99.3204 109.888 98.3517C109.819 98.2674 109.777 98.1514 109.771 98.0273C109.764 97.9032 109.793 97.7803 109.851 97.6836C109.913 97.5891 110.001 97.5309 110.095 97.5217C110.189 97.5125 110.282 97.5531 110.354 97.6345Z" fill="white"/>
<path d="M154.999 145.852C154.717 145.921 154.435 145.991 154.151 146.068C150.365 147.029 146.643 148.397 143.024 150.16C142.743 150.29 142.459 150.428 142.181 150.568C133.495 154.938 125.494 161.416 118.585 169.671C115.839 172.96 113.284 176.521 110.943 180.325C107.711 185.579 104.52 191.618 100.297 195.044C99.8589 195.408 99.4047 195.735 98.9366 196.024L74.6044 182.597C74.5606 182.53 74.5142 182.47 74.4702 182.402L73.4802 181.925C73.5906 181.718 73.7085 181.506 73.8189 181.298C73.8826 181.178 73.9517 181.06 74.0154 180.939C74.0595 180.86 74.104 180.78 74.1404 180.705C74.1551 180.679 74.17 180.652 74.1823 180.633C74.2187 180.558 74.2586 180.494 74.2927 180.426C74.9491 179.239 75.6129 178.055 76.2842 176.876C76.2865 176.869 76.2865 176.869 76.2942 176.865C81.426 167.898 87.1655 159.423 93.6895 152.376C93.8858 152.164 94.0842 151.944 94.2916 151.738C97.2456 148.584 100.388 145.755 103.689 143.282C105.499 141.935 107.36 140.711 109.263 139.615C114.185 136.794 119.411 135.021 124.747 134.361C135.385 133.047 146.221 136.273 154.38 145.165C154.589 145.392 154.792 145.617 154.999 145.852Z" fill="#F0F0F0"/>
<path d="M154.816 146.233C141.84 142.779 127.951 144.819 115.929 152.238C113.33 153.843 110.798 155.771 108.691 158.381C106.583 160.992 105.237 164.141 104.388 167.779C103.613 171.104 103.109 174.625 101.739 177.642C100.295 180.822 97.9153 182.762 95.2054 183.478C91.8897 184.354 88.5351 183.593 85.274 182.697C81.6532 181.702 77.9042 180.592 74.236 181.835C73.7916 181.985 73.642 181.059 74.0858 180.909C80.4677 178.747 86.6768 183.366 93.0719 182.883C96.056 182.657 99.007 181.234 100.777 177.873C102.324 174.934 102.846 171.303 103.61 167.927C104.411 164.382 105.608 161.209 107.559 158.53C109.556 155.789 112.036 153.725 114.593 152.04C120.36 148.238 126.691 145.789 133.05 144.561C140.358 143.148 147.795 143.409 155.037 145.332C155.486 145.451 155.261 146.351 154.816 146.233V146.233Z" fill="white"/>
<path d="M119.741 149.552C119.086 146.669 119.223 143.569 120.128 140.807C121.032 138.046 122.645 135.802 124.678 134.476C125.09 134.21 125.421 135.049 125.008 135.316C123.113 136.546 121.611 138.636 120.773 141.21C119.934 143.784 119.815 146.672 120.437 149.353C120.571 149.935 119.875 150.132 119.741 149.552Z" fill="white"/>
<path d="M104.615 166.023C108.675 168.981 113.424 169.795 117.914 168.301C118.359 168.153 118.509 169.079 118.064 169.227C113.389 170.77 108.449 169.91 104.229 166.82C103.827 166.525 104.215 165.73 104.615 166.023Z" fill="white"/>
<path d="M140.112 144.36C140.19 145.546 140.489 146.688 140.981 147.682C141.473 148.677 142.143 149.493 142.931 150.058C143.336 150.346 142.947 151.14 142.545 150.854C141.677 150.225 140.938 149.322 140.392 148.225C139.847 147.128 139.511 145.87 139.416 144.56C139.399 144.438 139.418 144.312 139.468 144.207C139.519 144.103 139.598 144.028 139.689 143.997C139.781 143.972 139.877 143.995 139.956 144.063C140.036 144.131 140.091 144.238 140.112 144.36Z" fill="white"/>
<path d="M108.647 168.004C105.24 146.084 100.98 138.776 100.98 138.776L99.3529 137.097L97.396 135.075L97.4054 134.815L96.9413 134.605L96.8322 134.492L96.6535 134.31L96.6248 134.351L96.5641 134.434L87.7088 130.43L76.4744 125.353L71.2721 116.357C70.4248 114.892 69.334 113.708 68.0852 112.897C66.8363 112.087 65.4634 111.673 64.074 111.686L47.4596 111.85C45.2131 111.872 43.0541 113.011 41.4071 115.044L30.4867 128.52L13.4706 139.331L13.4419 139.293L13.2632 139.463L10.6341 141.135L10.7426 141.886L9.11531 143.449C9.11531 143.449 4.85572 150.249 1.44804 170.645C0.58116 175.835 0.154452 186.967 0.000432825 200.686C-0.00730352 201.38 0.0887397 202.069 0.282975 202.713C0.477211 203.357 0.765766 203.944 1.13186 204.438C1.49796 204.933 1.93429 205.325 2.41548 205.593C2.89668 205.862 3.41314 206 3.93484 206H94.8209V206H106.165C106.686 206 107.202 205.862 107.683 205.594C108.164 205.326 108.6 204.934 108.966 204.44C109.332 203.946 109.621 203.36 109.815 202.717C110.01 202.073 110.106 201.385 110.099 200.691C109.949 185.764 109.522 173.632 108.647 168.004Z" fill="#3F3D56"/>
<path d="M120.308 19.116C116.772 19.116 113.381 20.9848 110.881 24.3111C108.381 27.6375 106.976 32.149 106.976 36.8531C106.976 41.5573 108.381 46.0688 110.881 49.3952C113.381 52.7215 116.772 54.5902 120.308 54.5902H219.667C223.203 54.5902 226.595 52.7215 229.095 49.3952C231.595 46.0688 233 41.5573 233 36.8531C233 32.149 231.595 27.6375 229.095 24.3111C226.595 20.9848 223.203 19.116 219.667 19.116H120.308Z" fill="#E5E5E5"/>
<path d="M120.308 22.7057C117.488 22.7057 114.783 24.1962 112.789 26.8494C110.795 29.5025 109.674 33.101 109.674 36.8531C109.674 40.6053 110.795 44.2037 112.789 46.8569C114.783 49.51 117.488 51.0006 120.308 51.0006H219.667C222.488 51.0006 225.193 49.51 227.187 46.8569C229.181 44.2037 230.302 40.6053 230.302 36.8531C230.302 33.101 229.181 29.5025 227.187 26.8494C225.193 24.1962 222.488 22.7057 219.667 22.7057H120.308Z" fill="white"/>
<path d="M58.376 103.382C70.3973 103.382 80.1424 90.4179 80.1424 74.4252C80.1424 58.4325 70.3973 45.4678 58.376 45.4678C46.3547 45.4678 36.6095 58.4325 36.6095 74.4252C36.6095 90.4179 46.3547 103.382 58.376 103.382Z" fill="#9E616A"/>
<path d="M52.8076 101.965C52.7146 101.692 52.6219 101.419 52.5294 101.145C52.5651 101.146 52.6003 101.153 52.636 101.154L52.8076 101.965Z" fill="#2F2E41"/>
<path d="M36.0041 46.7846C37.105 45.6163 38.3916 44.5413 39.7992 44.6017C41.2067 44.6621 42.634 46.3533 42.3424 48.1862C44.9277 42.0964 49.0428 37.4126 53.9652 34.9571C58.8877 32.5015 64.303 32.431 69.2606 34.758C72.7589 36.3999 76.1895 39.6848 76.9931 44.5027C77.1994 45.7395 77.2437 47.0956 77.8241 48.0999C78.556 49.3661 79.9562 49.6525 81.1093 49.2071C81.1208 49.2027 81.1323 49.1981 81.1438 49.1936C81.3386 49.1051 81.5488 49.0964 81.7474 49.1686C81.9459 49.2408 82.1236 49.3906 82.2574 49.5986C82.3913 49.8067 82.4751 50.0633 82.4981 50.3354C82.5211 50.6076 82.4822 50.8826 82.3865 51.125L81.3966 53.5809C82.6444 53.9509 83.9408 53.9142 85.1756 53.4739C85.3808 53.4024 85.5975 53.417 85.7961 53.5158C85.9948 53.6145 86.1656 53.7927 86.2851 54.0257C86.4046 54.2587 86.467 54.5353 86.4637 54.8173C86.4605 55.0994 86.3917 55.3732 86.2668 55.6012C83.003 61.5627 77.5502 65.4123 71.9857 65.367C68.0309 65.3349 64.0353 63.5216 60.1863 64.7316C58.6973 65.1996 57.3059 66.1053 56.1143 67.382C54.9227 68.6587 53.9611 70.2742 53.2999 72.1099C52.6388 73.9456 52.295 75.9548 52.2938 77.9903C52.2925 80.0258 52.6338 82.0358 53.2926 83.873C52.1102 82.1524 49.8244 82.5597 48.6149 84.2467C47.4054 85.9337 47.0923 88.4517 47.2142 90.7774C47.4005 94.3344 48.4481 97.6862 49.5525 100.948C40.2933 100.561 31.5356 91.9196 28.5877 80.2325C25.6275 68.4964 28.7299 54.5045 36.0041 46.7846Z" fill="#2F2E41"/>
<path opacity="0.2" d="M21.4238 161.386L27.5288 205.576L31.192 206L21.4238 161.386Z" fill="black"/>
<path opacity="0.2" d="M88.6717 158.053L82.5667 205.544L78.9036 206L88.6717 158.053Z" fill="black"/>
<path d="M41.2112 31.9127C40.0407 32.5629 38.8193 31.8503 38.307 30.2183C37.7869 28.5614 38.2727 26.8793 39.462 26.2187C40.6514 25.5579 41.8511 26.2723 42.3795 27.956C42.9001 29.6144 42.4196 31.2414 41.2112 31.9127ZM38.9689 22.9572L38.0382 23.4743C37.8057 23.6019 37.5457 23.6088 37.3095 23.4936C37.0734 23.3783 36.8784 23.1494 36.763 22.852L36.717 22.7322C35.7155 20.3295 35.6009 17.4093 36.378 14.0574C37.0979 11.0505 37.3969 8.93582 36.7956 7.02C36.1003 4.80496 34.6157 4.11109 32.7225 5.11624C31.9883 5.52413 31.7546 5.51763 31.1768 6.28023C31.0511 6.44813 30.9012 6.58063 30.7362 6.66984C30.5712 6.75905 30.3944 6.80314 30.2163 6.79948C30.0441 6.79678 29.8741 6.74798 29.7164 6.656C29.5587 6.56401 29.4166 6.43072 29.2984 6.26408C29.0709 5.94293 28.9433 5.51884 28.9417 5.07747C28.94 4.63609 29.0643 4.21032 29.2894 3.88613C30.2607 2.53354 31.4321 1.46347 32.7299 0.743438C36.7975 -1.51621 38.8452 1.81984 39.7823 4.80528C40.6988 7.72539 40.1832 10.4348 39.3548 13.9437C38.6606 16.8594 38.7011 19.0198 39.4896 21.168C39.5466 21.3304 39.5782 21.5065 39.5828 21.6856C39.5873 21.8647 39.5645 22.0431 39.5159 22.2102C39.4673 22.3774 39.3937 22.5297 39.2998 22.658C39.2058 22.7864 39.0932 22.8882 38.969 22.9572L38.9689 22.9572Z" fill="#6C63FF"/>
<path d="M142.256 45.3125H122.487C122.424 45.3131 122.362 45.2971 122.304 45.2656C122.245 45.234 122.193 45.1874 122.148 45.1285C122.103 45.0696 122.068 44.9996 122.044 44.9225C122.02 44.8453 122.007 44.7626 122.007 44.6791C122.007 44.5955 122.02 44.5128 122.044 44.4356C122.068 44.3585 122.103 44.2885 122.148 44.2296C122.193 44.1707 122.245 44.1242 122.304 44.0926C122.362 44.061 122.424 44.045 122.487 44.0456H142.256C142.381 44.0467 142.502 44.114 142.59 44.2326C142.679 44.3513 142.729 44.5118 142.729 44.6791C142.729 44.8463 142.679 45.0068 142.59 45.1255C142.502 45.2441 142.381 45.3114 142.256 45.3125Z" fill="#6C63FF"/>
<path d="M167.333 45.5237H147.565C147.502 45.5242 147.44 45.5083 147.382 45.4767C147.323 45.4451 147.271 45.3985 147.226 45.3397C147.181 45.2808 147.146 45.2108 147.122 45.1336C147.098 45.0565 147.085 44.9738 147.085 44.8902C147.085 44.8066 147.098 44.7239 147.122 44.6468C147.146 44.5696 147.181 44.4996 147.226 44.4407C147.271 44.3819 147.323 44.3353 147.382 44.3037C147.44 44.2721 147.502 44.2562 147.565 44.2567H167.333C167.396 44.2562 167.459 44.2721 167.517 44.3037C167.575 44.3353 167.628 44.3819 167.672 44.4407C167.717 44.4996 167.752 44.5696 167.776 44.6468C167.8 44.7239 167.813 44.8066 167.813 44.8902C167.813 44.9738 167.8 45.0565 167.776 45.1336C167.752 45.2108 167.717 45.2808 167.672 45.3397C167.628 45.3985 167.575 45.4451 167.517 45.4767C167.459 45.5083 167.396 45.5242 167.333 45.5237Z" fill="#6C63FF"/>
<path d="M192.411 45.7348H172.642C172.517 45.7337 172.396 45.6664 172.308 45.5478C172.219 45.4291 172.17 45.2686 172.17 45.1013C172.17 44.9341 172.219 44.7736 172.308 44.6549C172.396 44.5363 172.517 44.469 172.642 44.4679H192.411C192.474 44.4673 192.536 44.4833 192.594 44.5149C192.653 44.5464 192.705 44.593 192.75 44.6519C192.795 44.7108 192.83 44.7808 192.854 44.8579C192.878 44.9351 192.891 45.0178 192.891 45.1013C192.891 45.1849 192.878 45.2676 192.854 45.3448C192.83 45.4219 192.795 45.4919 192.75 45.5508C192.705 45.6097 192.653 45.6563 192.594 45.6878C192.536 45.7194 192.474 45.7354 192.411 45.7348H192.411Z" fill="#6C63FF"/>
<path d="M217.489 45.946H197.72C197.595 45.9448 197.474 45.8776 197.386 45.7589C197.297 45.6402 197.247 45.4798 197.247 45.3125C197.247 45.1452 197.297 44.9848 197.386 44.8661C197.474 44.7474 197.595 44.6802 197.72 44.679H217.489C217.615 44.6802 217.735 44.7474 217.824 44.8661C217.912 44.9848 217.962 45.1452 217.962 45.3125C217.962 45.4798 217.912 45.6402 217.824 45.7589C217.735 45.8776 217.615 45.9448 217.489 45.946Z" fill="#6C63FF"/>
<path d="M132.328 39.4826C134.357 39.4826 136.002 37.2942 136.002 34.5946C136.002 31.8951 134.357 29.7066 132.328 29.7066C130.299 29.7066 128.654 31.8951 128.654 34.5946C128.654 37.2942 130.299 39.4826 132.328 39.4826Z" fill="#6C63FF"/>
<path d="M157.557 39.4826C159.586 39.4826 161.231 37.2942 161.231 34.5946C161.231 31.8951 159.586 29.7066 157.557 29.7066C155.528 29.7066 153.883 31.8951 153.883 34.5946C153.883 37.2942 155.528 39.4826 157.557 39.4826Z" fill="#6C63FF"/>
<path d="M182.786 39.4826C184.816 39.4826 186.461 37.2942 186.461 34.5946C186.461 31.8951 184.816 29.7066 182.786 29.7066C180.757 29.7066 179.112 31.8951 179.112 34.5946C179.112 37.2942 180.757 39.4826 182.786 39.4826Z" fill="#6C63FF"/>
<path d="M208.016 39.4826C210.045 39.4826 211.69 37.2942 211.69 34.5946C211.69 31.8951 210.045 29.7066 208.016 29.7066C205.986 29.7066 204.341 31.8951 204.341 34.5946C204.341 37.2942 205.986 39.4826 208.016 39.4826Z" fill="#6C63FF"/>
</g>
<defs>
<clipPath id="clip0_11_333">
<rect width="233" height="206" fill="white"/>
</clipPath>
</defs>
</svg>
