<svg width="182" height="123" viewBox="0 0 182 123" fill="none" xmlns="http://www.w3.org/2000/svg">
<g clip-path="url(#clip0_7_223)">
<path d="M165.668 112.286C162.179 115.501 158.181 118.278 153.792 120.533C153.692 120.586 153.589 120.636 153.487 120.688L146.382 115.275C146.456 115.215 146.539 115.148 146.628 115.075C151.922 110.748 178.203 80.4939 179.954 73.1266C179.833 73.7404 181.535 97.8101 165.668 112.286Z" fill="#F0F0F0"/>
<path d="M155.163 121.578C155.029 121.605 154.892 121.631 154.755 121.654L149.425 117.594C149.529 117.562 149.651 117.525 149.79 117.484C152.077 116.787 158.888 114.682 165.667 112.286C172.951 109.709 180.2 106.798 181.759 104.933C181.424 105.367 171.123 118.506 155.163 121.578Z" fill="#F0F0F0"/>
<path d="M165.569 32.2134H164.81V14.3136C164.81 12.9531 164.499 11.6059 163.894 10.349C163.289 9.09207 162.402 7.95001 161.285 6.988C160.167 6.02599 158.841 5.26288 157.38 4.74225C155.92 4.22161 154.355 3.95364 152.775 3.95364H108.718C107.138 3.95364 105.573 4.2216 104.112 4.74224C102.652 5.26287 101.325 6.02597 100.208 6.98798C99.0903 7.94998 98.2038 9.09205 97.5989 10.349C96.9941 11.6059 96.6828 12.9531 96.6828 14.3135V112.513C96.6828 113.874 96.9941 115.221 97.5989 116.478C98.2038 117.735 99.0903 118.877 100.208 119.839C101.325 120.801 102.652 121.564 104.112 122.085C105.573 122.605 107.138 122.873 108.718 122.873H152.775C154.355 122.873 155.92 122.605 157.38 122.085C158.84 121.564 160.167 120.801 161.285 119.839C162.402 118.877 163.289 117.735 163.894 116.478C164.499 115.221 164.81 113.874 164.81 112.513V44.9547H165.569V32.2134Z" fill="#3F3D56"/>
<path d="M162.248 14.3847V112.441C162.248 113.457 162.016 114.464 161.564 115.402C161.112 116.341 160.45 117.194 159.615 117.912C158.78 118.63 157.789 119.2 156.699 119.589C155.608 119.977 154.439 120.177 153.259 120.177H108.99C107.81 120.177 106.642 119.977 105.551 119.588C104.461 119.199 103.47 118.629 102.636 117.911C101.802 117.193 101.14 116.34 100.688 115.402C100.237 114.463 100.004 113.457 100.004 112.441V14.3847C100.004 13.3689 100.237 12.363 100.688 11.4245C101.14 10.486 101.802 9.63329 102.636 8.91501C103.47 8.19672 104.461 7.62697 105.551 7.23827C106.642 6.84957 107.81 6.64955 108.99 6.64963H114.363C114.099 7.20777 113.998 7.81314 114.07 8.41249C114.142 9.01184 114.384 9.58681 114.775 10.0868C115.165 10.5869 115.693 10.9966 116.31 11.28C116.928 11.5635 117.617 11.7119 118.317 11.7123H143.556C144.256 11.7129 144.946 11.5651 145.564 11.2819C146.183 10.9987 146.71 10.5889 147.101 10.0886C147.492 9.5883 147.734 9.01289 147.805 8.41314C147.876 7.81339 147.775 7.20774 147.51 6.64963H153.259C154.439 6.64926 155.608 6.84906 156.699 7.23762C157.789 7.62618 158.78 8.19588 159.615 8.91419C160.45 9.6325 161.112 10.4853 161.564 11.424C162.016 12.3626 162.248 13.3687 162.248 14.3847Z" fill="white"/>
<path d="M148.478 65.3403H109.567C108.886 65.3396 108.232 65.1063 107.75 64.6914C107.268 64.2766 106.997 63.7142 106.996 63.1275V62.0261C106.997 61.4394 107.268 60.877 107.75 60.4622C108.232 60.0473 108.886 59.814 109.567 59.8133H148.478C149.159 59.814 149.813 60.0473 150.295 60.4622C150.776 60.877 151.048 61.4394 151.048 62.0261V63.1275C151.048 63.7142 150.776 64.2766 150.295 64.6914C149.813 65.1063 149.159 65.3396 148.478 65.3403Z" fill="#F0F0F0"/>
<path d="M148.478 74.8346H109.567C108.886 74.8339 108.232 74.6006 107.75 74.1858C107.268 73.7709 106.997 73.2085 106.996 72.6218V71.5204C106.997 70.9338 107.268 70.3713 107.75 69.9565C108.232 69.5417 108.886 69.3083 109.567 69.3077H148.478C149.159 69.3083 149.813 69.5417 150.295 69.9565C150.776 70.3713 151.048 70.9338 151.048 71.5204V72.6218C151.048 73.2085 150.776 73.7709 150.295 74.1858C149.813 74.6006 149.159 74.8339 148.478 74.8346Z" fill="#F0F0F0"/>
<path d="M150.424 63.2169H111.513C110.798 63.2162 110.112 62.9711 109.606 62.5356C109.1 62.1 108.815 61.5095 108.814 60.8935V59.7921C108.815 59.1761 109.1 58.5855 109.606 58.1499C110.112 57.7144 110.798 57.4694 111.513 57.4687H150.424C151.14 57.4694 151.826 57.7144 152.332 58.1499C152.838 58.5855 153.122 59.1761 153.123 59.7921V60.8935C153.122 61.5095 152.838 62.1 152.332 62.5356C151.826 62.9711 151.14 63.2162 150.424 63.2169ZM111.513 57.9112C110.934 57.9118 110.379 58.1101 109.969 58.4627C109.56 58.8153 109.329 59.2934 109.328 59.7921V60.8935C109.329 61.3921 109.56 61.8702 109.969 62.2228C110.379 62.5754 110.934 62.7738 111.513 62.7743H150.424C151.003 62.7738 151.559 62.5754 151.968 62.2228C152.378 61.8702 152.609 61.3921 152.609 60.8935V59.7921C152.609 59.2934 152.378 58.8153 151.968 58.4627C151.559 58.1101 151.003 57.9118 150.424 57.9112H111.513Z" fill="#3F3D56"/>
<path d="M150.424 72.7112H111.513C110.798 72.7105 110.112 72.4655 109.606 72.0299C109.1 71.5943 108.815 71.0038 108.814 70.3878V69.2864C108.815 68.6704 109.1 68.0798 109.606 67.6443C110.112 67.2087 110.798 66.9637 111.513 66.963H150.424C151.14 66.9637 151.826 67.2087 152.332 67.6443C152.838 68.0798 153.122 68.6704 153.123 69.2864V70.3878C153.122 71.0038 152.838 71.5943 152.332 72.0299C151.826 72.4655 151.14 72.7105 150.424 72.7112ZM111.513 67.4055C110.934 67.4061 110.379 67.6044 109.969 67.957C109.56 68.3096 109.329 68.7877 109.328 69.2864V70.3878C109.329 70.8864 109.56 71.3645 109.969 71.7171C110.379 72.0697 110.934 72.2681 111.513 72.2686H150.424C151.003 72.2681 151.559 72.0697 151.968 71.7171C152.378 71.3645 152.609 70.8864 152.609 70.3878V69.2864C152.609 68.7877 152.378 68.3096 151.968 67.957C151.559 67.6044 151.003 67.4061 150.424 67.4055H111.513Z" fill="#3F3D56"/>
<path d="M162.248 14.3847V35.7134C158.311 36.605 154.189 36.7073 150.198 36.0124C146.208 35.3175 142.456 33.844 139.231 31.7051C136.006 29.5662 133.394 26.8191 131.596 23.675C129.799 20.5309 128.862 17.0737 128.86 13.5693C128.86 12.9438 128.889 12.3248 128.948 11.7123H143.556C144.256 11.7129 144.946 11.5651 145.564 11.2819C146.183 10.9987 146.71 10.5889 147.101 10.0886C147.492 9.5883 147.734 9.01289 147.805 8.41314C147.876 7.81339 147.775 7.20774 147.51 6.64963H153.259C154.439 6.64926 155.608 6.84906 156.699 7.23762C157.789 7.62618 158.78 8.19588 159.615 8.91419C160.45 9.6325 161.112 10.4853 161.564 11.424C162.015 12.3626 162.248 13.3687 162.248 14.3847Z" fill="#F0F0F0"/>
<path d="M122.372 118.845C122.372 119.294 122.353 119.738 122.31 120.177H108.99C107.81 120.177 106.642 119.977 105.551 119.588C104.461 119.199 103.47 118.629 102.636 117.911C101.802 117.193 101.14 116.34 100.688 115.402C100.237 114.463 100.004 113.457 100.004 112.441V101.953C102.796 101.64 105.634 101.844 108.327 102.549C111.021 103.255 113.509 104.447 115.626 106.045C117.742 107.643 119.439 109.612 120.602 111.819C121.765 114.026 122.369 116.421 122.372 118.845H122.372Z" fill="#6C63FF"/>
<path d="M14.9408 100.441C15.3151 100.583 15.7393 100.591 16.1206 100.464C16.5018 100.337 16.8089 100.084 16.9744 99.7626L28.9739 76.3529C29.2485 75.8172 29.3324 75.2234 29.215 74.6467C29.0976 74.0699 28.7841 73.5361 28.3142 73.1126C27.8443 72.6892 27.2391 72.3953 26.5751 72.268C25.9111 72.1407 25.2182 72.1857 24.5839 72.3974H24.5839C23.8511 72.6383 23.238 73.0903 22.8487 73.6765C22.7868 73.7692 22.7306 73.8647 22.6805 73.9626L10.681 97.3722C10.5992 97.5317 10.5547 97.7035 10.5501 97.8779C10.5455 98.0522 10.5808 98.2256 10.654 98.3881C10.7272 98.5507 10.8369 98.6992 10.9768 98.8253C11.1168 98.9514 11.2842 99.0525 11.4695 99.1229L14.9408 100.441Z" fill="#6C63FF"/>
<path d="M28.4813 85.9636L16.6122 83.6932L19.5499 77.0036C20.0504 75.3685 21.2151 73.942 22.8327 72.9828C24.4503 72.0236 26.4138 71.5952 28.3669 71.7753L28.4813 71.7862L28.4813 85.9636Z" fill="#2F2E41"/>
<path d="M52.4548 100.776C52.1057 100.776 51.7643 100.688 51.4718 100.524C51.1793 100.36 50.9482 100.126 50.8066 99.8518L38.8071 76.4422C38.4255 75.6974 38.39 74.855 38.708 74.0883C39.026 73.3216 39.6732 72.689 40.5165 72.3206C41.3598 71.9522 42.3351 71.876 43.2417 72.1077C44.1483 72.3394 44.9172 72.8614 45.3903 73.5663V73.5661C45.4568 73.6657 45.5171 73.7682 45.571 73.8733L57.5704 97.283C57.7631 97.6588 57.7744 98.0851 57.6018 98.4682C57.4293 98.8512 57.0871 99.1595 56.6505 99.3253L53.0615 100.688L53.0597 100.685C52.8657 100.745 52.6611 100.776 52.4548 100.776Z" fill="#6C63FF"/>
<path d="M35.8565 92.7373C35.4475 92.7377 35.0555 92.8777 34.7663 93.1266C34.4772 93.3755 34.3145 93.713 34.3141 94.065V121.285C34.3145 121.637 34.4772 121.974 34.7663 122.223C35.0555 122.472 35.4475 122.612 35.8565 122.613H39.6506C40.0595 122.612 40.4515 122.472 40.7407 122.223C41.0298 121.974 41.1925 121.637 41.1929 121.285V94.065C41.1925 93.713 41.0298 93.3755 40.7407 93.1266C40.4515 92.8777 40.0595 92.7377 39.6506 92.7373H35.8565Z" fill="#6C63FF"/>
<path d="M28.3522 92.7373C27.9433 92.7377 27.5512 92.8777 27.2621 93.1266C26.9729 93.3755 26.8103 93.713 26.8098 94.065V121.285C26.8103 121.637 26.9729 121.974 27.2621 122.223C27.5512 122.472 27.9433 122.612 28.3522 122.613H32.1464C32.5553 122.612 32.9473 122.472 33.2365 122.223C33.5256 121.974 33.6883 121.637 33.6887 121.285V94.065C33.6883 93.713 33.5256 93.3755 33.2365 93.1266C32.9473 92.8777 32.5553 92.7377 32.1464 92.7373H28.3522Z" fill="#6C63FF"/>
<path d="M33.888 64.2195C41.1285 64.2195 46.9982 59.167 46.9982 52.9345C46.9982 46.7019 41.1285 41.6494 33.888 41.6494C26.6475 41.6494 20.7778 46.7019 20.7778 52.9345C20.7778 59.167 26.6475 64.2195 33.888 64.2195Z" fill="#6C63FF"/>
<path d="M38.2508 57.6718C39.1006 57.6515 40.1583 57.6261 40.9731 57.1137C41.2157 56.9549 41.4151 56.7523 41.5572 56.5202C41.6993 56.2881 41.7807 56.032 41.7957 55.77C41.8105 55.5837 41.775 55.3971 41.692 55.2246C41.609 55.0521 41.4809 54.8985 41.3175 54.7757C40.8919 54.4662 40.2705 54.3936 39.6008 54.563L40.2946 50.1982L39.7853 50.1381L38.9696 55.2695L39.3949 55.1015C39.8881 54.9068 40.565 54.8077 40.9856 55.1137C41.0889 55.1937 41.1694 55.2931 41.2208 55.4042C41.2722 55.5154 41.2931 55.6352 41.2819 55.7544C41.2695 55.9494 41.2083 56.1399 41.1027 56.3128C40.9971 56.4857 40.8494 56.6369 40.6698 56.7563C40.0357 57.155 39.1927 57.2064 38.2365 57.2294L38.2508 57.6718Z" fill="#2F2E41"/>
<path d="M45.5826 50.5746H42.8137V51.0172H45.5826V50.5746Z" fill="#2F2E41"/>
<path d="M36.8425 50.5746H34.0735V51.0172H36.8425V50.5746Z" fill="#2F2E41"/>
<path d="M46.8783 100.914L42.1597 71.2626C42.1091 70.9446 41.9264 70.6532 41.6454 70.4422C41.3645 70.2313 41.0043 70.1151 40.6315 70.1151H37.0698C37.0846 70.042 37.0923 69.968 37.0929 69.8938V68.7874C37.0929 68.4353 36.9304 68.0976 36.6411 67.8487C36.3519 67.5997 35.9596 67.4598 35.5505 67.4598H32.4657C32.0567 67.4598 31.6644 67.5997 31.3751 67.8487C31.0859 68.0976 30.9234 68.4353 30.9234 68.7874V69.8938C30.9239 69.968 30.9316 70.042 30.9465 70.1151H27.3848C27.0119 70.1151 26.6517 70.2313 26.3708 70.4423C26.0899 70.6532 25.9072 70.9446 25.8566 71.2626L21.1379 100.914C21.108 101.101 21.1252 101.292 21.1883 101.474C21.2514 101.656 21.359 101.824 21.5037 101.966C21.6485 102.109 21.8271 102.224 22.0276 102.302C22.2281 102.381 22.4458 102.421 22.666 102.421H45.3502C45.5704 102.421 45.7881 102.381 45.9886 102.302C46.1891 102.224 46.3677 102.109 46.5125 101.966C46.6573 101.824 46.7648 101.656 46.8279 101.474C46.891 101.292 46.9082 101.101 46.8783 100.914Z" fill="#2F2E41"/>
<path d="M39.535 85.9636V71.7862L39.6493 71.7753C41.6048 71.5954 43.5705 72.0252 45.1891 72.9867C46.8078 73.9482 47.9721 75.3776 48.4705 77.0152L51.404 83.6932L39.535 85.9636Z" fill="#2F2E41"/>
<path d="M33.2278 64.5717L24.1598 61.542C22.677 61.0466 21.1859 60.5663 19.711 60.0538C19.0792 59.8643 18.4972 59.569 17.9985 59.185C17.5644 58.7894 17.2685 58.2965 17.1448 57.7629C16.8303 56.6186 16.8872 55.3675 16.9096 54.1998C16.927 52.9223 17.0491 51.6475 17.2751 50.3849C17.6711 48.0121 18.601 45.7286 20.0129 43.6624C22.5559 40.0708 26.9374 37.3685 31.9773 37.5842C34.3106 37.684 36.6572 38.4047 38.3908 39.7779C38.5717 39.9639 38.7745 40.1332 38.9962 40.283C39.1503 40.3327 39.318 40.3424 39.4784 40.3108C39.6899 40.2991 39.9016 40.2902 40.1135 40.284C40.8488 40.2573 41.5854 40.2839 42.3154 40.3635C43.6459 40.4872 44.9068 40.9379 45.9478 41.6618C46.8141 42.3033 47.519 43.2089 47.5916 44.2153C47.6266 44.6773 47.5379 45.14 47.3322 45.5678C47.1265 45.9956 46.8095 46.377 46.4054 46.6826C45.3236 47.4675 43.78 47.1916 42.4823 47.1325L37.7283 46.9157L35.3195 46.8058C34.8236 46.7832 34.825 47.4471 35.3195 47.4696L41.7217 47.7616C42.7505 47.8085 43.8108 47.9235 44.8404 47.8704C45.6316 47.8395 46.387 47.578 46.9826 47.1286C47.5265 46.6985 47.9317 46.1544 48.1586 45.5494C48.3855 44.9444 48.4264 44.2991 48.2773 43.6764C47.9472 42.3183 46.773 41.1949 45.3965 40.5266C43.5235 39.6172 41.2866 39.53 39.1908 39.6645L39.4635 39.7617C37.0928 37.5715 33.4615 36.6467 30.0524 36.9703C26.4529 37.312 23.2515 39.0405 20.9513 41.4041C18.3868 44.0394 16.9892 47.3254 16.4459 50.7043C16.1632 52.5286 16.0701 54.371 16.1678 56.2096C16.1638 57.0204 16.3249 57.8256 16.6439 58.5886C17.0079 59.3311 17.666 59.9384 18.5012 60.3026C19.4588 60.7005 20.4432 61.0486 21.4492 61.345L24.79 62.4612L31.3524 64.6537L33.0228 65.2118C33.4857 65.3665 33.6863 64.7249 33.2278 64.5717Z" fill="#2F2E41"/>
<path d="M18.97 42.0131C18.1819 42.0131 17.4116 41.8119 16.7563 41.435C16.1011 41.0582 15.5904 40.5225 15.2888 39.8958C14.9873 39.2691 14.9084 38.5795 15.0621 37.9142C15.2158 37.2489 15.5953 36.6377 16.1526 36.1581C16.7098 35.6784 17.4198 35.3517 18.1927 35.2194C18.9656 35.0871 19.7667 35.155 20.4948 35.4146C21.2229 35.6742 21.8451 36.1138 22.283 36.6778C22.7208 37.2418 22.9545 37.9049 22.9545 38.5833C22.9533 39.4926 22.5331 40.3644 21.7861 41.0074C21.0392 41.6504 20.0264 42.012 18.97 42.0131ZM18.97 35.8173C18.3345 35.8173 17.7132 35.9796 17.1848 36.2835C16.6564 36.5874 16.2445 37.0194 16.0013 37.5248C15.7581 38.0302 15.6945 38.5863 15.8185 39.1229C15.9424 39.6594 16.2485 40.1523 16.6979 40.5391C17.1473 40.9259 17.7198 41.1894 18.3431 41.2961C18.9664 41.4028 19.6125 41.348 20.1997 41.1387C20.7868 40.9293 21.2887 40.5748 21.6417 40.12C21.9948 39.6651 22.1833 39.1303 22.1833 38.5833C22.1823 37.85 21.8435 37.1469 21.2411 36.6284C20.6387 36.1098 19.8219 35.8182 18.97 35.8173Z" fill="#2F2E41"/>
<path d="M85.5758 63.2677L76.9517 57.59L70.3557 65.0135L78.9798 70.6913L85.5758 63.2677Z" fill="#F0F0F0"/>
<path d="M36.8358 12.5834C38.1984 12.5825 39.5424 12.8562 40.76 13.3827C41.9776 13.9092 43.0351 14.6738 43.8478 15.6153L48.8836 9.94765L33.7738 0L22.2174 13.0064L28.7297 17.2938C29.3814 15.9025 30.5014 14.7107 31.9458 13.8713C33.3902 13.032 35.0931 12.5835 36.8358 12.5834Z" fill="#F0F0F0"/>
<path d="M181.743 123H0.257062C0.188885 123 0.1235 122.977 0.0752916 122.935C0.0270831 122.894 0 122.837 0 122.779C0 122.72 0.0270831 122.664 0.0752916 122.622C0.1235 122.581 0.188885 122.557 0.257062 122.557H181.743C181.811 122.557 181.876 122.581 181.925 122.622C181.973 122.664 182 122.72 182 122.779C182 122.837 181.973 122.894 181.925 122.935C181.876 122.977 181.811 123 181.743 123Z" fill="#3F3D56"/>
<path d="M137.448 86.2836H118.975C118.293 86.2829 117.64 86.0496 117.158 85.6347C116.676 85.2199 116.405 84.6575 116.404 84.0708V82.9694C116.405 82.3827 116.676 81.8203 117.158 81.4055C117.64 80.9906 118.293 80.7573 118.975 80.7566H137.448C138.129 80.7573 138.783 80.9906 139.265 81.4055C139.747 81.8203 140.018 82.3827 140.018 82.9694V84.0708C140.018 84.6575 139.747 85.2199 139.265 85.6347C138.783 86.0496 138.129 86.2829 137.448 86.2836Z" fill="#6C63FF"/>
<path d="M139.394 84.1603H120.921C120.206 84.1596 119.52 83.9146 119.014 83.479C118.508 83.0434 118.223 82.4529 118.222 81.8369V80.7355C118.223 80.1195 118.508 79.5289 119.014 79.0933C119.52 78.6578 120.206 78.4128 120.921 78.4121H139.394C140.11 78.4128 140.796 78.6578 141.302 79.0933C141.808 79.5289 142.093 80.1195 142.094 80.7355V81.8369C142.093 82.4529 141.808 83.0434 141.302 83.479C140.796 83.9146 140.11 84.1596 139.394 84.1603ZM120.921 78.8546C120.342 78.8552 119.787 79.0535 119.377 79.4061C118.967 79.7587 118.737 80.2368 118.736 80.7355V81.8369C118.737 82.3355 118.967 82.8136 119.377 83.1662C119.787 83.5188 120.342 83.7172 120.921 83.7177H139.394C139.974 83.7172 140.529 83.5188 140.939 83.1662C141.348 82.8136 141.579 82.3355 141.579 81.8369V80.7355C141.579 80.2368 141.348 79.7587 140.939 79.4061C140.529 79.0535 139.974 78.8552 139.394 78.8546H120.921Z" fill="#3F3D56"/>
</g>
<defs>
<clipPath id="clip0_7_223">
<rect width="182" height="123" fill="white"/>
</clipPath>
</defs>
</svg>
