<svg width="374" height="292" viewBox="0 0 374 292" fill="none" xmlns="http://www.w3.org/2000/svg">
<g clip-path="url(#clip0_39_175)">
<path d="M371.524 291.5H0V290.5H371.524C371.756 290.5 371.943 290.724 371.943 291C371.943 291.276 371.756 291.5 371.524 291.5Z" fill="#050001"/>
<path d="M91.7141 290.5H68.4377C64.9588 290.5 62.1284 287.123 62.1284 282.97V201.436C62.1284 197.284 64.9588 193.906 68.4377 193.906H91.7141C95.193 193.906 98.0234 197.284 98.0234 201.436V282.97C98.0234 287.123 95.193 290.5 91.7141 290.5Z" fill="#050001"/>
<path d="M319.753 290.66H296.477C292.998 290.66 290.167 287.282 290.167 283.13V201.596C290.167 197.444 292.998 194.066 296.477 194.066H319.753C323.232 194.066 326.062 197.444 326.062 201.596V283.13C326.062 287.282 323.232 290.66 319.753 290.66Z" fill="#050001"/>
<path d="M97.2325 87.9045L62.9565 146.002C58.8204 153.012 57.1806 161.693 58.3959 170.144L68.8132 242.574C71.0507 258.131 82.3536 269.502 95.58 269.502H296.997C311.352 269.502 323.227 256.17 324.105 239.071L328.125 160.709C328.603 151.38 325.684 142.259 320.116 135.686L272.038 78.9289C266.76 72.699 259.576 69.3185 252.156 69.5737L118.656 74.1661C110.1 74.4604 102.16 79.5517 97.2325 87.9045H97.2325Z" fill="#6C63FF"/>
<path d="M102.453 98.2182L95.8999 112.842C91.7237 122.161 97.8126 133.166 107.077 133.043L271.154 130.868C281.232 130.734 286.908 117.77 280.881 108.652L270.549 93.0227C268.167 89.4184 264.389 87.3306 260.406 87.4167L113.214 90.5966C108.65 90.6952 104.511 93.6269 102.453 98.2182H102.453Z" fill="white"/>
<path d="M307.839 128.736C306.779 128.736 305.747 128.267 304.954 127.41C304.056 126.44 303.54 125.054 303.54 123.607L303.54 120.393L304.08 105.578C304.181 102.827 306.066 100.672 308.374 100.672H325.454C327.045 100.672 328.498 101.712 329.247 103.387L331.282 107.941C331.925 109.382 331.961 111.055 331.381 112.532C330.801 114.01 329.699 115.047 328.36 115.377L315.483 118.557C314.152 118.885 313.102 120.062 312.744 121.629L311.984 124.957C311.519 126.992 310.024 128.5 308.265 128.71C308.123 128.728 307.981 128.736 307.839 128.736V128.736Z" fill="#6C63FF"/>
<path d="M77.1107 128.71C75.3518 128.5 73.8572 126.992 73.3919 124.957L72.6314 121.629C72.2736 120.062 71.2241 118.885 69.8927 118.557L57.0153 115.377C55.6764 115.047 54.5753 114.01 53.9948 112.532C53.4144 111.055 53.4504 109.382 54.0938 107.941L56.129 103.387C56.8778 101.712 58.3308 100.672 59.9213 100.672H77.0021C79.3094 100.672 81.1951 102.827 81.2955 105.578L81.8354 120.393L81.8357 123.607C81.8357 125.054 81.3202 126.44 80.4219 127.41C79.6291 128.267 78.5967 128.736 77.5365 128.736C77.3949 128.736 77.2526 128.728 77.1107 128.71L77.1107 128.71Z" fill="#6C63FF"/>
<path d="M100.839 192.226C110.168 192.226 117.731 183.201 117.731 172.068C117.731 160.934 110.168 151.909 100.839 151.909C91.51 151.909 83.9473 160.934 83.9473 172.068C83.9473 183.201 91.51 192.226 100.839 192.226Z" fill="white"/>
<path d="M295.446 192.646C304.775 192.646 312.338 183.621 312.338 172.488C312.338 161.354 304.775 152.329 295.446 152.329C286.117 152.329 278.554 161.354 278.554 172.488C278.554 183.621 286.117 192.646 295.446 192.646Z" fill="white"/>
<path d="M78.3545 64.371C79.91 65.4101 81.2344 66.8785 82.2168 68.6537L93.3085 76.5249L112.154 87.0593C112.154 87.0593 116.599 68.204 121.909 66.9997C127.219 65.7954 135.979 79.7696 135.979 79.7696C135.979 79.7696 120.708 109.278 114.056 106.253C107.404 103.227 92.5404 88.5331 92.5404 88.5331L90.5989 86.6501L78.2499 76.8461C76.47 76.7169 74.7421 76.0807 73.2105 74.991C69.3481 72.3282 67.3687 67.7915 68.789 64.8586C70.2094 61.9254 74.4911 61.7068 78.3545 64.371V64.371Z" fill="#A0616A"/>
<path d="M115.088 72.555L124.725 59.0152L130.548 60.0162C137.69 61.2441 141.66 70.5406 138.296 78.1584L134.941 85.7545L115.088 72.555V72.555Z" fill="#2F1F1F"/>
<path d="M83.7487 90.2817L66.786 62.3749C66.5344 61.9629 66.5959 61.3855 66.9257 61.0605L70.9949 57.0505C71.1713 56.8767 71.4025 56.8001 71.6288 56.8399C71.8548 56.8802 72.0582 57.0325 72.1857 57.2605L89.0394 87.4467C89.1783 87.6944 89.2133 87.9993 89.136 88.283C89.0583 88.5672 88.8789 88.7891 88.6435 88.8922L84.6839 90.6218C84.3928 90.7492 84.0678 90.6636 83.8475 90.4155C83.8116 90.3751 83.7782 90.3306 83.7487 90.2817V90.2817Z" fill="#050001"/>
<path d="M85.0975 88.5757L67.5418 61.419C67.2816 61.018 67.2996 60.4956 67.5825 60.23L71.0736 56.9514C71.2249 56.8093 71.4334 56.7614 71.6453 56.8195C71.8569 56.878 72.0551 57.0369 72.1883 57.2577L89.7966 86.4891C89.9416 86.7291 89.9945 87.0114 89.9422 87.2635C89.8895 87.5161 89.7386 87.7019 89.528 87.7737L85.9848 88.9764C85.7243 89.0651 85.4182 88.9556 85.1978 88.7076C85.1619 88.6672 85.1281 88.6232 85.0975 88.5757H85.0975Z" fill="#2F1F1F"/>
<path d="M78.0928 258.381L70.4596 278.039L58.0054 271.326L67.6473 256.463L78.0928 258.381Z" fill="#A0616A"/>
<path d="M65.2366 271.806L74.4768 270.367C74.4768 270.367 80.9048 288.586 76.0838 289.545C71.2628 290.504 33.4985 294.819 33.4985 289.066C33.4985 283.312 49.1667 276.121 49.1667 276.121L60.0139 267.011L65.2366 271.806V271.806Z" fill="black"/>
<path d="M137.953 131.807C137.953 131.807 149.202 151.944 125.097 164.409L99.3854 208.519L78.0927 263.655L65.2368 257.902L87.7347 174.478L100.591 137.081L106.617 125.574L137.953 131.807V131.807Z" fill="black"/>
<path d="M48.5702 206.01L43.4535 226.798L30.3052 222.354L38.002 205.955L48.5702 206.01Z" fill="#A0616A"/>
<path d="M37.5165 221.554L46.4773 218.502C46.4773 218.502 55.0895 235.389 50.4401 237.187C45.7907 238.985 8.97454 249.909 8.26252 244.219C7.5505 238.528 22.1568 228.654 22.1568 228.654L31.7577 217.732L37.5165 221.554H37.5165Z" fill="black"/>
<path d="M113.447 127.78L51.7026 143.771C46.9384 145.005 43.2445 149.5 42.3037 155.208L33.6616 207.653L52.5757 214.98L61.0702 168.156L115.888 165.621L113.447 127.78H113.447Z" fill="black"/>
<path d="M128.97 39.1742L121.335 57.0229L141.645 60.7938L141.423 36.7967L128.97 39.1742Z" fill="#A0616A"/>
<path d="M133.209 46.497C141.017 46.497 147.346 38.9432 147.346 29.6252C147.346 20.3071 141.017 12.7533 133.209 12.7533C125.401 12.7533 119.071 20.3071 119.071 29.6252C119.071 38.9432 125.401 46.497 133.209 46.497Z" fill="#A0616A"/>
<path d="M142.372 137.56L144.704 92.4879C146.721 81.6994 146.049 70.4423 142.771 60.1038L141.971 49.3415L123.49 50.7799L115.656 65.8825L108.224 101.601L106.617 125.574L142.372 137.56V137.56Z" fill="#2F1F1F"/>
<path d="M88.292 102.685C90.0572 102.389 91.8562 102.601 93.5386 103.304L106.36 101.557L126.704 96.3275C126.704 96.3275 120.678 78.1085 124.293 73.314C127.909 68.5195 141.97 73.314 141.97 73.314C141.97 73.314 144.783 107.834 137.953 110.232C131.123 112.629 111.839 111.67 111.839 111.67L109.339 111.574L94.5364 112.691C93.0542 113.874 91.356 114.616 89.5842 114.855C85.1593 115.525 81.2825 113.344 80.9254 109.984C80.5682 106.623 83.8655 103.356 88.292 102.685V102.685Z" fill="#A0616A"/>
<path d="M121.682 82.6632L122.486 64.9236L127.628 61.5143C133.935 57.3324 141.811 61.8642 142.997 70.358L144.18 78.8276L121.682 82.6632V82.6632Z" fill="#2F1F1F"/>
<path d="M144.231 39.9948C144.231 39.9948 145.55 32.1284 141.595 31.6039C137.64 31.0795 133.685 21.6397 133.685 21.6397C133.685 21.6397 120.038 18.7989 119.598 25.6165C119.159 32.4341 119.327 30.9189 119.327 30.9189C119.327 30.9189 116.083 29.2875 117.401 22.4699C117.778 20.522 118.692 18.7454 119.807 17.2011C123.389 12.238 128.893 9.89333 134.346 10.6436C136.655 10.9614 143.53 13.577 144.858 15.3602C148.374 20.0801 149.944 34.7505 144.231 39.9948V39.9948Z" fill="#050001"/>
<path d="M97.6208 240.011C95.1407 240.011 92.9528 238.462 91.7624 235.862C90.5654 233.247 90.6631 230.195 92.0236 227.697L92.2257 227.854L92.0236 227.697L96.433 219.601C97.67 217.33 99.7633 215.974 102.033 215.974H293.817C295.772 215.974 297.622 216.992 298.893 218.765L303.732 225.519C305.441 227.905 305.823 231.16 304.729 234.014C303.636 236.868 301.323 238.652 298.693 238.669L97.6608 240.011H97.6208V240.011Z" fill="#050001"/>
<path d="M327.078 142.276C330.606 145.03 334.657 145.09 336.125 142.41C337.593 139.73 335.923 135.326 332.393 132.572C330.996 131.449 329.394 130.741 327.72 130.508L312.648 119.066L308.299 127.621L323.619 137.993C324.469 139.73 325.655 141.199 327.078 142.276L327.078 142.276Z" fill="#FFB6B6"/>
<path d="M284.21 114.078L321.186 136.886L324.403 126.329L299.323 102.883L297.653 68.6768C297.449 64.4997 295.694 60.7135 292.837 58.2884C289.98 55.8643 286.407 55.1274 283.034 56.2674C277.029 58.2977 273.449 65.8062 275.053 73.0043L284.21 114.078V114.078Z" fill="#2F1F1F"/>
<path d="M293.142 52.8698L294.87 39.9749L283.201 34.3011L281.472 53.9014L293.142 52.8698Z" fill="#FFB6B6"/>
<path d="M256.393 126.244C256.393 126.244 253.043 151.231 266.444 154.23C279.844 157.228 310.414 159.227 310.414 159.227L349.777 216.199L357.734 205.705L323.814 143.235L296.594 122.745L256.393 126.244V126.244Z" fill="black"/>
<path d="M259.592 122.199C259.592 122.199 251.779 145.724 264.315 152.12C276.851 158.517 306.329 168.383 306.329 168.383L334.399 234.19L344.074 226.005L322.318 156.241L299.471 129.192L259.592 122.199V122.199Z" fill="black"/>
<path d="M295.338 50.7809L280.263 47.7823L270.045 54.5695C264.098 64.8926 263.607 97.6344 262.203 110.049L253.881 133.24L280.263 128.742L301.62 126.244L294.501 70.771L295.338 50.7809L295.338 50.7809Z" fill="#2F1F1F"/>
<path d="M290.193 44.1201C296.765 44.1201 302.093 37.7618 302.093 29.9184C302.093 22.0751 296.765 15.7168 290.193 15.7168C283.621 15.7168 278.293 22.0751 278.293 29.9184C278.293 37.7618 283.621 44.1201 290.193 44.1201Z" fill="#FFB6B6"/>
<path d="M289.243 10.8253C289.587 11.0652 290.049 10.7022 290.159 10.245C290.27 9.78777 290.141 9.30232 290.013 8.85149C289.799 8.09497 289.585 7.33846 289.371 6.58195C288.916 4.97234 288.433 3.30649 287.446 2.08136C285.958 0.232239 283.592 -0.238168 281.463 0.102625C278.728 0.540271 276.03 2.30753 274.758 5.22992C273.486 8.15231 274.028 12.2301 276.325 14.0534C273.051 18.5326 271.909 23.5246 272.089 29.4652C272.27 35.4058 277.694 40.873 281.232 45.0579C282.022 44.4864 282.74 41.8081 282.306 40.8351C281.871 39.8621 282.494 38.7349 281.956 37.8387C281.418 36.9424 280.968 38.3695 281.511 37.4784C281.855 36.916 280.515 35.6224 281.025 35.2858C283.493 33.6579 284.314 29.9872 285.864 27.1762C287.733 23.7856 290.933 21.4894 294.318 21.1085C296.184 20.8987 298.154 21.2787 299.683 22.571C301.211 23.8633 302.201 26.1726 301.847 28.368C302.765 27.2554 303.222 25.625 303.05 24.077C302.877 22.5291 302.079 21.0977 300.949 20.3099C301.636 17.5988 301.048 14.4803 299.453 12.3823C297.859 10.2844 291.391 10.6417 289.063 11.1938" fill="black"/>
<path d="M288.881 21.1908C285.798 21.588 283.572 24.7751 281.692 27.7185C280.609 29.415 279.474 31.2884 279.501 33.4212C279.529 35.5775 280.737 37.427 281.314 39.4705C282.258 42.8107 281.338 46.7848 279.092 49.0735C281.312 49.5761 283.711 47.5899 284.094 44.9327C284.54 41.8393 282.575 38.8538 282.808 35.7272C283.013 32.9727 284.832 30.8528 286.378 28.7933C287.925 26.7338 289.377 24.0008 288.666 21.369" fill="black"/>
<path d="M317.62 144.947C321.148 147.701 325.199 147.761 326.667 145.081C328.135 142.401 326.465 137.997 322.935 135.243C321.538 134.12 319.936 133.412 318.262 133.179L303.19 121.737L298.841 130.292L314.161 140.664C315.011 142.401 316.197 143.87 317.62 144.947V144.947Z" fill="#FFB6B6"/>
<path d="M274.752 116.749L311.728 139.557L314.945 129L289.865 105.554L288.195 71.348C287.991 67.1708 286.236 63.3846 283.379 60.9596C280.522 58.5355 276.949 57.7985 273.576 58.9386C267.571 60.9688 263.99 68.4773 265.595 75.6754L274.752 116.749V116.749Z" fill="#2F1F1F"/>
<path d="M335.731 225.361L336.587 225.945C336.587 225.945 342.449 221.947 345.381 225.945C348.312 229.943 350.406 239.938 350.406 239.938C350.406 239.938 362.55 251.932 355.431 251.932C350.072 251.932 337.357 244.852 331.397 241.351C329.495 240.234 328.609 237.579 329.349 235.208C329.966 233.231 330.764 231.156 331.561 230.442C332.399 229.693 332.922 228.069 333.236 226.632C333.521 225.33 334.752 224.693 335.731 225.361V225.361Z" fill="black"/>
<path d="M352.062 206.37L352.918 206.954C352.918 206.954 358.781 202.956 361.712 206.954C364.643 210.952 366.737 220.947 366.737 220.947C366.737 220.947 378.881 232.941 371.762 232.941C366.404 232.941 353.689 225.861 347.729 222.361C345.826 221.243 344.941 218.588 345.681 216.217C346.297 214.24 347.095 212.166 347.893 211.452C348.73 210.702 349.254 209.078 349.568 207.641C349.853 206.339 351.083 205.703 352.062 206.37V206.37Z" fill="black"/>
</g>
<defs>
<clipPath id="clip0_39_175">
<rect width="374" height="292" fill="white"/>
</clipPath>
</defs>
</svg>
