<svg width="218" height="128" viewBox="0 0 218 128" fill="none" xmlns="http://www.w3.org/2000/svg">
<g clip-path="url(#clip0_7_139)">
<path d="M20.9642 107.829L19.0442 103.396C15.64 102.551 12.1572 101.82 8.61232 101.205L8.36998 103.265L7.38717 100.995C2.99087 100.26 0 99.9361 0 99.9361C0 99.9361 4.03894 108.929 12.5131 115.805L22.3863 116.82L14.7161 117.467C15.7821 118.218 16.9276 118.929 18.146 119.596C30.4721 126.294 44.2013 129.367 48.8107 126.459C53.42 123.552 47.1643 115.766 34.8382 109.069C31.0171 106.993 26.2169 105.326 21.4117 104.015L20.9642 107.829Z" fill="#F2F2F2"/>
<path d="M39.2231 103.014L41.4937 98.6384C39.3255 96.8853 36.9902 95.2053 34.4987 93.6062L32.4722 95.2964L33.6348 93.056C30.5204 91.0966 28.246 89.9146 28.246 89.9146C28.246 89.9146 23.7636 98.8355 24.9461 107.285L32.5015 111.142L25.3625 109.375C25.6123 110.341 25.9656 111.296 26.4203 112.235C31.058 121.699 40.0974 128.484 46.61 127.39C53.1227 126.296 54.6428 117.738 50.0051 108.274C48.5674 105.341 45.9293 102.462 42.9741 99.885L39.2231 103.014Z" fill="#F2F2F2"/>
<path d="M152.119 30.3233H150.922V11.1167C150.922 9.65683 150.43 8.21126 149.476 6.86252C148.522 5.51378 147.123 4.28828 145.36 3.256C143.596 2.22372 141.503 1.40487 139.199 0.846207C136.895 0.287541 134.426 0 131.932 0H62.419C57.3826 0 52.5524 1.17122 48.9912 3.256C45.4299 5.34079 43.4292 8.16836 43.4292 11.1167V116.487C43.4292 117.947 43.9204 119.393 44.8747 120.742C45.829 122.09 47.2278 123.316 48.9912 124.348C50.7545 125.38 52.848 126.199 55.1519 126.758C57.4558 127.317 59.9252 127.604 62.419 127.604H131.932C136.968 127.604 141.798 126.433 145.359 124.348C148.921 122.263 150.921 119.436 150.921 116.487V43.9949H152.119L152.119 30.3233Z" fill="#E6E6E6"/>
<path d="M132.698 2.89111H123.625C124.042 3.49003 124.202 4.13983 124.089 4.78327C123.976 5.42671 123.595 6.04404 122.978 6.58087C122.362 7.11769 121.53 7.55754 120.554 7.86166C119.579 8.16578 118.491 8.32484 117.386 8.32481H77.5633C76.4584 8.32478 75.3705 8.16569 74.3954 7.86154C73.4203 7.5574 72.588 7.11755 71.9717 6.58073C71.3554 6.04391 70.9741 5.4266 70.8613 4.78319C70.7486 4.13977 70.9079 3.49 71.3251 2.89111H62.8504C59.0893 2.89111 55.4822 3.76577 52.8226 5.32267C50.1631 6.87956 48.669 8.99117 48.669 11.193V116.411C48.669 118.612 50.1631 120.724 52.8226 122.281C55.4822 123.838 59.0893 124.712 62.8504 124.712H132.698C136.459 124.712 140.066 123.838 142.726 122.281C145.385 120.724 146.879 118.612 146.879 116.411V11.1928C146.879 8.99102 145.385 6.87946 142.726 5.3226C140.066 3.76574 136.459 2.89111 132.698 2.89111Z" fill="white"/>
<path d="M88.8738 44.8045C88.8736 44.069 89.2043 43.3465 89.8327 42.7096C90.461 42.0728 91.3649 41.544 92.4532 41.1766C91.3654 40.8088 90.1314 40.6152 88.8751 40.6151C87.6189 40.615 86.3848 40.8085 85.2968 41.1762C84.2089 41.5438 83.3054 42.0727 82.6772 42.7095C82.0491 43.3464 81.7184 44.0688 81.7184 44.8042C81.7184 45.5396 82.0491 46.2621 82.6772 46.8989C83.3054 47.5358 84.2089 48.0646 85.2968 48.4323C86.3848 48.7999 87.6189 48.9934 88.8751 48.9933C90.1314 48.9933 91.3654 48.7996 92.4532 48.4318C91.3649 48.0645 90.4611 47.5358 89.8328 46.8991C89.2044 46.2623 88.8736 45.5399 88.8738 44.8045Z" fill="#CCCCCC"/>
<path d="M97.8698 44.8045C97.8695 44.069 98.2002 43.3465 98.8286 42.7096C99.457 42.0727 100.361 41.544 101.449 41.1766C100.361 40.8088 99.1273 40.6152 97.8711 40.6151C96.6149 40.615 95.3808 40.8085 94.2928 41.1762C93.2048 41.5438 92.3014 42.0727 91.6732 42.7095C91.045 43.3464 90.7144 44.0688 90.7144 44.8042C90.7144 45.5396 91.045 46.2621 91.6732 46.8989C92.3014 47.5358 93.2048 48.0646 94.2928 48.4323C95.3808 48.7999 96.6149 48.9934 97.8711 48.9933C99.1273 48.9933 100.361 48.7996 101.449 48.4318C100.361 48.0645 99.4571 47.5358 98.8287 46.8991C98.2004 46.2623 97.8696 45.5399 97.8698 44.8045Z" fill="#CCCCCC"/>
<path d="M106.662 48.9934C110.614 48.9934 113.817 47.1179 113.817 44.8043C113.817 42.4907 110.614 40.6152 106.662 40.6152C102.709 40.6152 99.5056 42.4907 99.5056 44.8043C99.5056 47.1179 102.709 48.9934 106.662 48.9934Z" fill="#6C63FF"/>
<path d="M118.621 57.8886H76.9144C76.5173 57.8883 76.1367 57.7959 75.8559 57.6315C75.5751 57.4671 75.4172 57.2443 75.4167 57.0119V32.5967C75.4172 32.3643 75.5751 32.1414 75.8559 31.9771C76.1367 31.8127 76.5173 31.7203 76.9144 31.72H118.621C119.018 31.7203 119.399 31.8127 119.679 31.9771C119.96 32.1414 120.118 32.3643 120.119 32.5967V57.0119C120.118 57.2443 119.96 57.4671 119.679 57.6315C119.399 57.7959 119.018 57.8883 118.621 57.8886ZM76.9144 32.0709C76.6761 32.071 76.4477 32.1265 76.2793 32.2251C76.1108 32.3237 76.0161 32.4574 76.0159 32.5969V57.012C76.0161 57.1515 76.1108 57.2852 76.2793 57.3838C76.4477 57.4824 76.6761 57.5379 76.9144 57.538H118.621C118.859 57.5379 119.088 57.4824 119.256 57.3838C119.424 57.2852 119.519 57.1515 119.519 57.012V32.5969C119.519 32.4574 119.424 32.3237 119.256 32.2251C119.088 32.1265 118.859 32.071 118.621 32.0709H76.9144Z" fill="#CCCCCC"/>
<path d="M127.933 76.6039H63.9681V76.9547H127.933V76.6039Z" fill="#CCCCCC"/>
<path d="M65.9882 74.4143C67.1038 74.4143 68.0083 73.8849 68.0083 73.2317C68.0083 72.5786 67.1038 72.0492 65.9882 72.0492C64.8725 72.0492 63.9681 72.5786 63.9681 73.2317C63.9681 73.8849 64.8725 74.4143 65.9882 74.4143Z" fill="#6C63FF"/>
<path d="M127.933 88.4288H63.9681V88.7795H127.933V88.4288Z" fill="#CCCCCC"/>
<path d="M65.9882 86.2393C67.1038 86.2393 68.0083 85.7099 68.0083 85.0568C68.0083 84.4036 67.1038 83.8742 65.9882 83.8742C64.8725 83.8742 63.9681 84.4036 63.9681 85.0568C63.9681 85.7099 64.8725 86.2393 65.9882 86.2393Z" fill="#6C63FF"/>
<path d="M126.763 101.894H106.548C106.199 101.894 105.864 101.813 105.617 101.668C105.37 101.524 105.231 101.328 105.231 101.123V96.9757C105.231 96.7713 105.37 96.5753 105.617 96.4307C105.864 96.2862 106.199 96.2049 106.548 96.2047H126.763C127.112 96.2049 127.447 96.2862 127.694 96.4307C127.941 96.5753 128.079 96.7713 128.08 96.9757V101.123C128.079 101.328 127.941 101.524 127.694 101.668C127.447 101.813 127.112 101.894 126.763 101.894Z" fill="#6C63FF"/>
<path d="M72.5775 74.4143C73.6931 74.4143 74.5975 73.8849 74.5975 73.2317C74.5975 72.5786 73.6931 72.0492 72.5775 72.0492C71.4618 72.0492 70.5574 72.5786 70.5574 73.2317C70.5574 73.8849 71.4618 74.4143 72.5775 74.4143Z" fill="#6C63FF"/>
<path d="M79.1668 74.4143C80.2825 74.4143 81.1869 73.8849 81.1869 73.2317C81.1869 72.5786 80.2825 72.0492 79.1668 72.0492C78.0512 72.0492 77.1468 72.5786 77.1468 73.2317C77.1468 73.8849 78.0512 74.4143 79.1668 74.4143Z" fill="#6C63FF"/>
<path d="M72.5775 86.2393C73.6931 86.2393 74.5975 85.7099 74.5975 85.0568C74.5975 84.4036 73.6931 83.8742 72.5775 83.8742C71.4618 83.8742 70.5574 84.4036 70.5574 85.0568C70.5574 85.7099 71.4618 86.2393 72.5775 86.2393Z" fill="#6C63FF"/>
<path d="M79.1668 86.2393C80.2825 86.2393 81.1869 85.7099 81.1869 85.0568C81.1869 84.4036 80.2825 83.8742 79.1668 83.8742C78.0512 83.8742 77.1468 84.4036 77.1468 85.0568C77.1468 85.7099 78.0512 86.2393 79.1668 86.2393Z" fill="#6C63FF"/>
<path d="M217.186 128H7.04766C6.59782 128 6.23343 127.906 6.23343 127.791C6.23343 127.676 6.59782 127.582 7.04766 127.582H217.186C217.635 127.582 218 127.676 218 127.791C218 127.907 217.635 128 217.186 128Z" fill="#3F3D56"/>
<path d="M165.268 83.8616C165.412 83.9 165.55 83.9451 165.681 83.9965L178.808 80.7166L179.277 78.6922L184.522 78.6735L184.212 83.3163L166.886 85.9987C166.849 86.0692 166.805 86.1383 166.755 86.2057C166.504 86.5186 166.101 86.7812 165.597 86.9606C165.092 87.1399 164.508 87.2279 163.918 87.2136C163.329 87.1993 162.759 87.0833 162.282 86.8802C161.804 86.6771 161.44 86.3959 161.234 86.0719C161.029 85.748 160.991 85.3957 161.127 85.0593C161.262 84.723 161.564 84.4175 161.995 84.1814C162.426 83.9452 162.967 83.7889 163.549 83.732C164.131 83.6751 164.729 83.7202 165.268 83.8616Z" fill="#FFB8B8"/>
<path d="M186.43 125.934H182.841L181.134 117.832L186.43 117.832L186.43 125.934Z" fill="#FFB8B8"/>
<path d="M180.278 125.334H187.198V127.885H175.921C175.921 127.208 176.38 126.56 177.197 126.081C178.014 125.603 179.123 125.334 180.278 125.334Z" fill="#2F2E41"/>
<path d="M200.384 125.341L196.813 125.547L193.758 117.582L199.028 117.278L200.384 125.341Z" fill="#FFB8B8"/>
<path d="M194.162 125.097L201.049 124.699L201.476 127.238L190.253 127.885C190.197 127.552 190.254 127.215 190.42 126.895C190.586 126.574 190.858 126.276 191.221 126.017C191.584 125.758 192.031 125.543 192.536 125.385C193.04 125.228 193.593 125.129 194.162 125.097Z" fill="#2F2E41"/>
<path d="M187.428 70.0989C191.398 70.0989 194.617 68.2148 194.617 65.8907C194.617 63.5666 191.398 61.6826 187.428 61.6826C183.458 61.6826 180.24 63.5666 180.24 65.8907C180.24 68.2148 183.458 70.0989 187.428 70.0989Z" fill="#FFB8B8"/>
<path d="M182.039 124.296C181.731 124.296 181.432 124.233 181.196 124.117C180.96 124.001 180.801 123.84 180.747 123.662C178.89 117.627 172.819 97.8928 172.674 97.3462C172.671 97.3336 172.669 97.3209 172.67 97.3082V95.8368C172.669 95.7832 172.698 95.731 172.751 95.6874L173.553 95.0298C173.591 94.9982 173.641 94.9721 173.699 94.9536C173.757 94.935 173.822 94.9245 173.888 94.9228C178.46 94.7973 193.434 94.4295 194.158 94.9586C194.884 95.4903 194.627 97.1014 194.569 97.419L194.571 97.4521L201.299 122.637C201.351 122.838 201.267 123.043 201.063 123.208C200.86 123.373 200.554 123.484 200.211 123.517L196.01 123.922C195.697 123.952 195.376 123.915 195.106 123.817C194.836 123.72 194.635 123.569 194.539 123.393C193.239 120.962 188.882 112.784 187.371 109.62C187.362 109.599 187.34 109.582 187.311 109.571C187.281 109.559 187.245 109.555 187.21 109.558C187.175 109.56 187.143 109.571 187.12 109.587C187.097 109.602 187.084 109.623 187.084 109.643C187.16 112.66 187.342 120.356 187.405 123.014L187.412 123.3C187.415 123.494 187.293 123.681 187.071 123.825C186.85 123.969 186.544 124.059 186.214 124.077L182.162 124.293C182.121 124.295 182.08 124.296 182.039 124.296Z" fill="#2F2E41"/>
<path d="M182.866 71.7535C181.612 72.1901 180.861 72.9924 180.43 73.8087C179.633 75.3201 179.153 76.8827 179.001 78.4621L178.545 83.1909L172.91 95.7274C177.794 98.1468 180.612 97.597 187.187 95.618C193.762 93.639 194.513 96.2778 194.513 96.2778L195.828 85.6108L197.707 73.9545C197.285 73.6573 196.808 73.3887 196.284 73.1537C194.547 72.3633 192.527 71.8139 190.375 71.5469C188.224 71.28 185.997 71.3024 183.862 71.6125L182.866 71.7535Z" fill="#6C63FF"/>
<path d="M181.036 86.3935C181.187 86.4269 181.334 86.4672 181.475 86.5141L194.455 82.7109L194.67 80.6505L200.024 80.4344L200.311 85.1312L182.965 88.4892C182.824 88.8448 182.501 89.1668 182.039 89.4123C181.577 89.6577 180.998 89.8151 180.38 89.8634C179.762 89.9117 179.133 89.8486 178.577 89.6827C178.022 89.5167 177.566 89.2556 177.27 88.9341C176.974 88.6127 176.852 88.2461 176.92 87.8832C176.989 87.5202 177.245 87.1781 177.654 86.9023C178.062 86.6265 178.605 86.4301 179.209 86.3392C179.813 86.2483 180.45 86.2672 181.036 86.3935Z" fill="#FFB8B8"/>
<path d="M197.613 74.0079C200.806 74.6678 201.369 81.8163 201.369 81.8163C197.612 80.6066 193.103 82.5861 193.103 82.5861C193.103 82.5861 192.164 80.7166 191.037 78.2972C190.696 77.6167 190.656 76.8968 190.918 76.2046C191.181 75.5124 191.739 74.8704 192.539 74.3383C192.539 74.3383 194.419 73.3477 197.613 74.0079Z" fill="#6C63FF"/>
<path d="M193.874 67.0036C192.978 66.5841 191.756 67.3466 191.756 67.3466L191.04 63.5715C191.04 63.5715 186.561 63.8855 183.695 63.4667C180.829 63.0478 180.382 64.9873 180.382 64.9873C180.234 64.2039 180.204 63.4143 180.292 62.6279C180.471 61.6841 182.8 60.7403 186.92 60.1111C191.04 59.4818 193.189 62.2084 193.189 62.2084C196.056 63.0472 194.769 67.4231 193.874 67.0036Z" fill="#2F2E41"/>
</g>
<defs>
<clipPath id="clip0_7_139">
<rect width="218" height="128" fill="white"/>
</clipPath>
</defs>
</svg>
